<mxfile host="app.diagrams.net" modified="2023-10-23T19:48:10.617Z" agent="Mozilla/5.0 (Windows NT 10.0; Win64; x64) AppleWebKit/537.36 (KHTML, like Gecko) Chrome/118.0.0.0 Safari/537.36" version="22.0.6" etag="DGhq3eoFXH-rebXgMdEu" type="device">
  <diagram name="Страница-1" id="Page-1">
    <mxGraphModel dx="2868" dy="1516" grid="1" gridSize="10" guides="1" tooltips="1" connect="1" arrows="1" fold="1" page="1" pageScale="1" pageWidth="827" pageHeight="1169" math="0" shadow="0">
      <root>
        <mxCell id="0" />
        <mxCell id="1" parent="0" />
        <UserObject label="" tags="Соединительная_линия" id="66">
          <mxCell style="vsdxID=61;edgeStyle=none;dashed=1;startArrow=none;endArrow=open;startSize=9;endSize=9;spacingTop=0;spacingBottom=0;spacingLeft=0;spacingRight=0;verticalAlign=middle;html=1;labelBackgroundColor=#ffffff;rounded=0;fontColor=#000000;" parent="1" source="tkfAQQkheavzR8f0n5Tx-70" target="tkfAQQkheavzR8f0n5Tx-69" edge="1">
            <mxGeometry relative="1" as="geometry">
              <mxPoint x="-1" as="offset" />
              <Array as="points" />
              <mxPoint x="915" y="299.9999999999999" as="sourcePoint" />
            </mxGeometry>
          </mxCell>
        </UserObject>
        <mxCell id="tkfAQQkheavzR8f0n5Tx-69" value="&lt;p style=&quot;margin:0px;margin-top:4px;text-align:center;&quot;&gt;&lt;i&gt;&amp;lt;&amp;lt;Interface&amp;gt;&amp;gt;&lt;/i&gt;&lt;br&gt;&lt;b&gt;ICanvas&lt;/b&gt;&lt;/p&gt;&lt;hr size=&quot;1&quot;&gt;&lt;p style=&quot;margin:0px;margin-left:4px;&quot;&gt;+&amp;nbsp;&lt;i style=&quot;border-color: var(--border-color); font-family: Calibri; font-size: 14.11px;&quot;&gt;MoveTo(x, y)&lt;/i&gt;&lt;br&gt;&lt;/p&gt;&lt;p style=&quot;margin:0px;margin-left:4px;&quot;&gt;&lt;i style=&quot;border-color: var(--border-color); font-family: Calibri; font-size: 14.11px;&quot;&gt;+ LineTo(x, y)&lt;/i&gt;&lt;/p&gt;&lt;br&gt;&amp;nbsp;" style="verticalAlign=top;align=left;overflow=fill;fontSize=12;fontFamily=Helvetica;html=1;whiteSpace=wrap;" vertex="1" parent="1">
          <mxGeometry x="300" y="170" width="190" height="100" as="geometry" />
        </mxCell>
        <mxCell id="tkfAQQkheavzR8f0n5Tx-70" value="&lt;p style=&quot;margin:0px;margin-top:4px;text-align:center;&quot;&gt;&lt;i&gt;&amp;lt;&amp;lt;Interface&amp;gt;&amp;gt;&lt;/i&gt;&lt;br&gt;&lt;b&gt;ICanvasDrawable&lt;/b&gt;&lt;/p&gt;&lt;hr size=&quot;1&quot;&gt;&lt;p style=&quot;margin:0px;margin-left:4px;&quot;&gt;+ &lt;font face=&quot;Calibri&quot;&gt;&lt;span style=&quot;font-size: 14.11px;&quot;&gt;&lt;i&gt;Draw(canvas)&lt;/i&gt;&lt;/span&gt;&lt;/font&gt;&lt;/p&gt;&lt;br&gt;&amp;nbsp;" style="verticalAlign=top;align=left;overflow=fill;fontSize=12;fontFamily=Helvetica;html=1;whiteSpace=wrap;" vertex="1" parent="1">
          <mxGeometry x="430" y="760" width="190" height="73" as="geometry" />
        </mxCell>
        <mxCell id="tkfAQQkheavzR8f0n5Tx-71" value="CanvasPainter" style="swimlane;fontStyle=0;childLayout=stackLayout;horizontal=1;startSize=26;fillColor=none;horizontalStack=0;resizeParent=1;resizeParentMax=0;resizeLast=0;collapsible=1;marginBottom=0;whiteSpace=wrap;html=1;" vertex="1" parent="1">
          <mxGeometry x="200" y="50" width="140" height="52" as="geometry" />
        </mxCell>
        <mxCell id="tkfAQQkheavzR8f0n5Tx-72" value="+ Draw:(drawable)" style="text;strokeColor=none;fillColor=none;align=left;verticalAlign=top;spacingLeft=4;spacingRight=4;overflow=hidden;rotatable=0;points=[[0,0.5],[1,0.5]];portConstraint=eastwest;whiteSpace=wrap;html=1;" vertex="1" parent="tkfAQQkheavzR8f0n5Tx-71">
          <mxGeometry y="26" width="140" height="26" as="geometry" />
        </mxCell>
        <mxCell id="tkfAQQkheavzR8f0n5Tx-77" value="" style="endArrow=diamondThin;endFill=0;endSize=24;html=1;rounded=0;" edge="1" parent="1" source="tkfAQQkheavzR8f0n5Tx-69" target="tkfAQQkheavzR8f0n5Tx-71">
          <mxGeometry width="160" relative="1" as="geometry">
            <mxPoint x="296" y="150" as="sourcePoint" />
            <mxPoint x="456" y="150" as="targetPoint" />
          </mxGeometry>
        </mxCell>
        <mxCell id="tkfAQQkheavzR8f0n5Tx-78" value="CCanvas" style="swimlane;fontStyle=0;childLayout=stackLayout;horizontal=1;startSize=26;fillColor=none;horizontalStack=0;resizeParent=1;resizeParentMax=0;resizeLast=0;collapsible=1;marginBottom=0;whiteSpace=wrap;html=1;" vertex="1" parent="1">
          <mxGeometry x="460" y="350" width="140" height="78" as="geometry" />
        </mxCell>
        <mxCell id="tkfAQQkheavzR8f0n5Tx-112" value="+ MoveTo(x, y): void" style="text;strokeColor=none;fillColor=none;align=left;verticalAlign=top;spacingLeft=4;spacingRight=4;overflow=hidden;rotatable=0;points=[[0,0.5],[1,0.5]];portConstraint=eastwest;whiteSpace=wrap;html=1;" vertex="1" parent="tkfAQQkheavzR8f0n5Tx-78">
          <mxGeometry y="26" width="140" height="26" as="geometry" />
        </mxCell>
        <mxCell id="tkfAQQkheavzR8f0n5Tx-113" value="+ LineTo(x, y): void" style="text;strokeColor=none;fillColor=none;align=left;verticalAlign=top;spacingLeft=4;spacingRight=4;overflow=hidden;rotatable=0;points=[[0,0.5],[1,0.5]];portConstraint=eastwest;whiteSpace=wrap;html=1;" vertex="1" parent="tkfAQQkheavzR8f0n5Tx-78">
          <mxGeometry y="52" width="140" height="26" as="geometry" />
        </mxCell>
        <mxCell id="tkfAQQkheavzR8f0n5Tx-80" value="" style="endArrow=block;dashed=1;endFill=0;endSize=12;html=1;rounded=0;" edge="1" parent="1" source="tkfAQQkheavzR8f0n5Tx-78" target="tkfAQQkheavzR8f0n5Tx-69">
          <mxGeometry width="160" relative="1" as="geometry">
            <mxPoint x="570" y="270" as="sourcePoint" />
            <mxPoint x="730" y="270" as="targetPoint" />
          </mxGeometry>
        </mxCell>
        <mxCell id="tkfAQQkheavzR8f0n5Tx-89" value="ModernGraphicsAdapter" style="swimlane;fontStyle=0;childLayout=stackLayout;horizontal=1;startSize=26;fillColor=none;horizontalStack=0;resizeParent=1;resizeParentMax=0;resizeLast=0;collapsible=1;marginBottom=0;whiteSpace=wrap;html=1;" vertex="1" parent="1">
          <mxGeometry x="150" y="350" width="165.5" height="78" as="geometry" />
        </mxCell>
        <mxCell id="tkfAQQkheavzR8f0n5Tx-108" value="+ MoveTo(x, y): void" style="text;strokeColor=none;fillColor=none;align=left;verticalAlign=top;spacingLeft=4;spacingRight=4;overflow=hidden;rotatable=0;points=[[0,0.5],[1,0.5]];portConstraint=eastwest;whiteSpace=wrap;html=1;" vertex="1" parent="tkfAQQkheavzR8f0n5Tx-89">
          <mxGeometry y="26" width="165.5" height="26" as="geometry" />
        </mxCell>
        <mxCell id="tkfAQQkheavzR8f0n5Tx-109" value="+ LineTo(x, y): void" style="text;strokeColor=none;fillColor=none;align=left;verticalAlign=top;spacingLeft=4;spacingRight=4;overflow=hidden;rotatable=0;points=[[0,0.5],[1,0.5]];portConstraint=eastwest;whiteSpace=wrap;html=1;" vertex="1" parent="tkfAQQkheavzR8f0n5Tx-89">
          <mxGeometry y="52" width="165.5" height="26" as="geometry" />
        </mxCell>
        <mxCell id="tkfAQQkheavzR8f0n5Tx-91" value="" style="endArrow=block;dashed=1;endFill=0;endSize=12;html=1;rounded=0;" edge="1" parent="1" source="tkfAQQkheavzR8f0n5Tx-89" target="tkfAQQkheavzR8f0n5Tx-69">
          <mxGeometry width="160" relative="1" as="geometry">
            <mxPoint x="340" y="450" as="sourcePoint" />
            <mxPoint x="500" y="450" as="targetPoint" />
          </mxGeometry>
        </mxCell>
        <mxCell id="tkfAQQkheavzR8f0n5Tx-92" value="" style="endArrow=diamondThin;endFill=0;endSize=24;html=1;rounded=0;" edge="1" parent="1" source="tkfAQQkheavzR8f0n5Tx-93" target="tkfAQQkheavzR8f0n5Tx-89">
          <mxGeometry width="160" relative="1" as="geometry">
            <mxPoint x="430" y="500" as="sourcePoint" />
            <mxPoint x="650" y="350" as="targetPoint" />
          </mxGeometry>
        </mxCell>
        <mxCell id="tkfAQQkheavzR8f0n5Tx-93" value="CModernGraphicsRenderer" style="swimlane;fontStyle=0;childLayout=stackLayout;horizontal=1;startSize=26;fillColor=none;horizontalStack=0;resizeParent=1;resizeParentMax=0;resizeLast=0;collapsible=1;marginBottom=0;whiteSpace=wrap;html=1;" vertex="1" parent="1">
          <mxGeometry x="250" y="530" width="200" height="104" as="geometry" />
        </mxCell>
        <mxCell id="tkfAQQkheavzR8f0n5Tx-94" value="+ BeginDraw(): void" style="text;strokeColor=none;fillColor=none;align=left;verticalAlign=top;spacingLeft=4;spacingRight=4;overflow=hidden;rotatable=0;points=[[0,0.5],[1,0.5]];portConstraint=eastwest;whiteSpace=wrap;html=1;" vertex="1" parent="tkfAQQkheavzR8f0n5Tx-93">
          <mxGeometry y="26" width="200" height="26" as="geometry" />
        </mxCell>
        <mxCell id="tkfAQQkheavzR8f0n5Tx-95" value="+ DrawLine(start, end): void" style="text;strokeColor=none;fillColor=none;align=left;verticalAlign=top;spacingLeft=4;spacingRight=4;overflow=hidden;rotatable=0;points=[[0,0.5],[1,0.5]];portConstraint=eastwest;whiteSpace=wrap;html=1;" vertex="1" parent="tkfAQQkheavzR8f0n5Tx-93">
          <mxGeometry y="52" width="200" height="26" as="geometry" />
        </mxCell>
        <mxCell id="tkfAQQkheavzR8f0n5Tx-96" value="+ EndDraw(): void" style="text;strokeColor=none;fillColor=none;align=left;verticalAlign=top;spacingLeft=4;spacingRight=4;overflow=hidden;rotatable=0;points=[[0,0.5],[1,0.5]];portConstraint=eastwest;whiteSpace=wrap;html=1;" vertex="1" parent="tkfAQQkheavzR8f0n5Tx-93">
          <mxGeometry y="78" width="200" height="26" as="geometry" />
        </mxCell>
        <mxCell id="tkfAQQkheavzR8f0n5Tx-97" value="Triangle" style="swimlane;fontStyle=0;childLayout=stackLayout;horizontal=1;startSize=26;fillColor=none;horizontalStack=0;resizeParent=1;resizeParentMax=0;resizeLast=0;collapsible=1;marginBottom=0;whiteSpace=wrap;html=1;" vertex="1" parent="1">
          <mxGeometry x="340" y="956.5" width="194" height="78" as="geometry" />
        </mxCell>
        <mxCell id="tkfAQQkheavzR8f0n5Tx-114" value="+ Draw(canvas)" style="text;strokeColor=none;fillColor=none;align=left;verticalAlign=top;spacingLeft=4;spacingRight=4;overflow=hidden;rotatable=0;points=[[0,0.5],[1,0.5]];portConstraint=eastwest;whiteSpace=wrap;html=1;" vertex="1" parent="tkfAQQkheavzR8f0n5Tx-97">
          <mxGeometry y="26" width="194" height="26" as="geometry" />
        </mxCell>
        <mxCell id="tkfAQQkheavzR8f0n5Tx-98" value="- m_vertexes: Array&amp;lt;Point, 3&amp;gt;" style="text;strokeColor=none;fillColor=none;align=left;verticalAlign=top;spacingLeft=4;spacingRight=4;overflow=hidden;rotatable=0;points=[[0,0.5],[1,0.5]];portConstraint=eastwest;whiteSpace=wrap;html=1;" vertex="1" parent="tkfAQQkheavzR8f0n5Tx-97">
          <mxGeometry y="52" width="194" height="26" as="geometry" />
        </mxCell>
        <mxCell id="tkfAQQkheavzR8f0n5Tx-101" value="Rectangle" style="swimlane;fontStyle=0;childLayout=stackLayout;horizontal=1;startSize=26;fillColor=none;horizontalStack=0;resizeParent=1;resizeParentMax=0;resizeLast=0;collapsible=1;marginBottom=0;whiteSpace=wrap;html=1;" vertex="1" parent="1">
          <mxGeometry x="560" y="956.5" width="134" height="130" as="geometry" />
        </mxCell>
        <mxCell id="tkfAQQkheavzR8f0n5Tx-115" value="+ Draw(canvas)" style="text;strokeColor=none;fillColor=none;align=left;verticalAlign=top;spacingLeft=4;spacingRight=4;overflow=hidden;rotatable=0;points=[[0,0.5],[1,0.5]];portConstraint=eastwest;whiteSpace=wrap;html=1;" vertex="1" parent="tkfAQQkheavzR8f0n5Tx-101">
          <mxGeometry y="26" width="134" height="26" as="geometry" />
        </mxCell>
        <mxCell id="tkfAQQkheavzR8f0n5Tx-105" value="- m_topLeft: Point" style="text;strokeColor=none;fillColor=none;align=left;verticalAlign=top;spacingLeft=4;spacingRight=4;overflow=hidden;rotatable=0;points=[[0,0.5],[1,0.5]];portConstraint=eastwest;whiteSpace=wrap;html=1;" vertex="1" parent="tkfAQQkheavzR8f0n5Tx-101">
          <mxGeometry y="52" width="134" height="26" as="geometry" />
        </mxCell>
        <mxCell id="tkfAQQkheavzR8f0n5Tx-104" value="- m_width: int" style="text;strokeColor=none;fillColor=none;align=left;verticalAlign=top;spacingLeft=4;spacingRight=4;overflow=hidden;rotatable=0;points=[[0,0.5],[1,0.5]];portConstraint=eastwest;whiteSpace=wrap;html=1;" vertex="1" parent="tkfAQQkheavzR8f0n5Tx-101">
          <mxGeometry y="78" width="134" height="26" as="geometry" />
        </mxCell>
        <mxCell id="tkfAQQkheavzR8f0n5Tx-103" value="- m_height: int" style="text;strokeColor=none;fillColor=none;align=left;verticalAlign=top;spacingLeft=4;spacingRight=4;overflow=hidden;rotatable=0;points=[[0,0.5],[1,0.5]];portConstraint=eastwest;whiteSpace=wrap;html=1;" vertex="1" parent="tkfAQQkheavzR8f0n5Tx-101">
          <mxGeometry y="104" width="134" height="26" as="geometry" />
        </mxCell>
        <mxCell id="tkfAQQkheavzR8f0n5Tx-106" value="" style="endArrow=block;dashed=1;endFill=0;endSize=12;html=1;rounded=0;" edge="1" parent="1" source="tkfAQQkheavzR8f0n5Tx-97" target="tkfAQQkheavzR8f0n5Tx-70">
          <mxGeometry width="160" relative="1" as="geometry">
            <mxPoint x="520" y="986.5" as="sourcePoint" />
            <mxPoint x="680" y="986.5" as="targetPoint" />
          </mxGeometry>
        </mxCell>
        <mxCell id="tkfAQQkheavzR8f0n5Tx-107" value="" style="endArrow=block;dashed=1;endFill=0;endSize=12;html=1;rounded=0;" edge="1" parent="1" source="tkfAQQkheavzR8f0n5Tx-101" target="tkfAQQkheavzR8f0n5Tx-70">
          <mxGeometry width="160" relative="1" as="geometry">
            <mxPoint x="520" y="886.5" as="sourcePoint" />
            <mxPoint x="680" y="886.5" as="targetPoint" />
          </mxGeometry>
        </mxCell>
        <mxCell id="tkfAQQkheavzR8f0n5Tx-118" value="&lt;p style=&quot;margin:0px;margin-top:4px;text-align:center;&quot;&gt;&lt;i&gt;&amp;lt;&amp;lt;Interface&amp;gt;&amp;gt;&lt;/i&gt;&lt;br&gt;&lt;b&gt;ICanvas&lt;/b&gt;&lt;/p&gt;&lt;hr size=&quot;1&quot;&gt;&lt;p style=&quot;margin:0px;margin-left:4px;&quot;&gt;+&amp;nbsp;&lt;i style=&quot;border-color: var(--border-color); font-family: Calibri; font-size: 14.11px;&quot;&gt;MoveTo(x, y)&lt;/i&gt;&lt;br&gt;&lt;/p&gt;&lt;p style=&quot;margin:0px;margin-left:4px;&quot;&gt;&lt;i style=&quot;border-color: var(--border-color); font-family: Calibri; font-size: 14.11px;&quot;&gt;+ LineTo(x, y)&lt;/i&gt;&lt;/p&gt;&lt;br&gt;&amp;nbsp;" style="verticalAlign=top;align=left;overflow=fill;fontSize=12;fontFamily=Helvetica;html=1;whiteSpace=wrap;" vertex="1" parent="1">
          <mxGeometry x="1270" y="190" width="190" height="100" as="geometry" />
        </mxCell>
        <mxCell id="tkfAQQkheavzR8f0n5Tx-120" value="CanvasPainter" style="swimlane;fontStyle=0;childLayout=stackLayout;horizontal=1;startSize=26;fillColor=none;horizontalStack=0;resizeParent=1;resizeParentMax=0;resizeLast=0;collapsible=1;marginBottom=0;whiteSpace=wrap;html=1;" vertex="1" parent="1">
          <mxGeometry x="1170" y="70" width="140" height="52" as="geometry" />
        </mxCell>
        <mxCell id="tkfAQQkheavzR8f0n5Tx-121" value="+ Draw:(drawable)" style="text;strokeColor=none;fillColor=none;align=left;verticalAlign=top;spacingLeft=4;spacingRight=4;overflow=hidden;rotatable=0;points=[[0,0.5],[1,0.5]];portConstraint=eastwest;whiteSpace=wrap;html=1;" vertex="1" parent="tkfAQQkheavzR8f0n5Tx-120">
          <mxGeometry y="26" width="140" height="26" as="geometry" />
        </mxCell>
        <mxCell id="tkfAQQkheavzR8f0n5Tx-122" value="" style="endArrow=diamondThin;endFill=0;endSize=24;html=1;rounded=0;" edge="1" parent="1" source="tkfAQQkheavzR8f0n5Tx-118" target="tkfAQQkheavzR8f0n5Tx-120">
          <mxGeometry width="160" relative="1" as="geometry">
            <mxPoint x="1266" y="170" as="sourcePoint" />
            <mxPoint x="1426" y="170" as="targetPoint" />
          </mxGeometry>
        </mxCell>
        <mxCell id="tkfAQQkheavzR8f0n5Tx-123" value="CCanvas" style="swimlane;fontStyle=0;childLayout=stackLayout;horizontal=1;startSize=26;fillColor=none;horizontalStack=0;resizeParent=1;resizeParentMax=0;resizeLast=0;collapsible=1;marginBottom=0;whiteSpace=wrap;html=1;" vertex="1" parent="1">
          <mxGeometry x="1430" y="370" width="140" height="78" as="geometry" />
        </mxCell>
        <mxCell id="tkfAQQkheavzR8f0n5Tx-124" value="+ MoveTo(x, y): void" style="text;strokeColor=none;fillColor=none;align=left;verticalAlign=top;spacingLeft=4;spacingRight=4;overflow=hidden;rotatable=0;points=[[0,0.5],[1,0.5]];portConstraint=eastwest;whiteSpace=wrap;html=1;" vertex="1" parent="tkfAQQkheavzR8f0n5Tx-123">
          <mxGeometry y="26" width="140" height="26" as="geometry" />
        </mxCell>
        <mxCell id="tkfAQQkheavzR8f0n5Tx-125" value="+ LineTo(x, y): void" style="text;strokeColor=none;fillColor=none;align=left;verticalAlign=top;spacingLeft=4;spacingRight=4;overflow=hidden;rotatable=0;points=[[0,0.5],[1,0.5]];portConstraint=eastwest;whiteSpace=wrap;html=1;" vertex="1" parent="tkfAQQkheavzR8f0n5Tx-123">
          <mxGeometry y="52" width="140" height="26" as="geometry" />
        </mxCell>
        <mxCell id="tkfAQQkheavzR8f0n5Tx-126" value="" style="endArrow=block;dashed=1;endFill=0;endSize=12;html=1;rounded=0;" edge="1" parent="1" source="tkfAQQkheavzR8f0n5Tx-123" target="tkfAQQkheavzR8f0n5Tx-118">
          <mxGeometry width="160" relative="1" as="geometry">
            <mxPoint x="1540" y="290" as="sourcePoint" />
            <mxPoint x="1700" y="290" as="targetPoint" />
          </mxGeometry>
        </mxCell>
        <mxCell id="tkfAQQkheavzR8f0n5Tx-127" value="ModernGraphicsAdapter" style="swimlane;fontStyle=0;childLayout=stackLayout;horizontal=1;startSize=26;fillColor=none;horizontalStack=0;resizeParent=1;resizeParentMax=0;resizeLast=0;collapsible=1;marginBottom=0;whiteSpace=wrap;html=1;" vertex="1" parent="1">
          <mxGeometry x="1120" y="370" width="165.5" height="78" as="geometry" />
        </mxCell>
        <mxCell id="tkfAQQkheavzR8f0n5Tx-128" value="+ MoveTo(x, y): void" style="text;strokeColor=none;fillColor=none;align=left;verticalAlign=top;spacingLeft=4;spacingRight=4;overflow=hidden;rotatable=0;points=[[0,0.5],[1,0.5]];portConstraint=eastwest;whiteSpace=wrap;html=1;" vertex="1" parent="tkfAQQkheavzR8f0n5Tx-127">
          <mxGeometry y="26" width="165.5" height="26" as="geometry" />
        </mxCell>
        <mxCell id="tkfAQQkheavzR8f0n5Tx-129" value="+ LineTo(x, y): void" style="text;strokeColor=none;fillColor=none;align=left;verticalAlign=top;spacingLeft=4;spacingRight=4;overflow=hidden;rotatable=0;points=[[0,0.5],[1,0.5]];portConstraint=eastwest;whiteSpace=wrap;html=1;" vertex="1" parent="tkfAQQkheavzR8f0n5Tx-127">
          <mxGeometry y="52" width="165.5" height="26" as="geometry" />
        </mxCell>
        <mxCell id="tkfAQQkheavzR8f0n5Tx-130" value="" style="endArrow=block;dashed=1;endFill=0;endSize=12;html=1;rounded=0;" edge="1" parent="1" source="tkfAQQkheavzR8f0n5Tx-127" target="tkfAQQkheavzR8f0n5Tx-118">
          <mxGeometry width="160" relative="1" as="geometry">
            <mxPoint x="1310" y="470" as="sourcePoint" />
            <mxPoint x="1470" y="470" as="targetPoint" />
          </mxGeometry>
        </mxCell>
        <mxCell id="tkfAQQkheavzR8f0n5Tx-132" value="CModernGraphicsRenderer" style="swimlane;fontStyle=0;childLayout=stackLayout;horizontal=1;startSize=26;fillColor=none;horizontalStack=0;resizeParent=1;resizeParentMax=0;resizeLast=0;collapsible=1;marginBottom=0;whiteSpace=wrap;html=1;" vertex="1" parent="1">
          <mxGeometry x="950" y="186" width="200" height="104" as="geometry" />
        </mxCell>
        <mxCell id="tkfAQQkheavzR8f0n5Tx-133" value="+ BeginDraw(): void" style="text;strokeColor=none;fillColor=none;align=left;verticalAlign=top;spacingLeft=4;spacingRight=4;overflow=hidden;rotatable=0;points=[[0,0.5],[1,0.5]];portConstraint=eastwest;whiteSpace=wrap;html=1;" vertex="1" parent="tkfAQQkheavzR8f0n5Tx-132">
          <mxGeometry y="26" width="200" height="26" as="geometry" />
        </mxCell>
        <mxCell id="tkfAQQkheavzR8f0n5Tx-134" value="+ DrawLine(start, end): void" style="text;strokeColor=none;fillColor=none;align=left;verticalAlign=top;spacingLeft=4;spacingRight=4;overflow=hidden;rotatable=0;points=[[0,0.5],[1,0.5]];portConstraint=eastwest;whiteSpace=wrap;html=1;" vertex="1" parent="tkfAQQkheavzR8f0n5Tx-132">
          <mxGeometry y="52" width="200" height="26" as="geometry" />
        </mxCell>
        <mxCell id="tkfAQQkheavzR8f0n5Tx-135" value="+ EndDraw(): void" style="text;strokeColor=none;fillColor=none;align=left;verticalAlign=top;spacingLeft=4;spacingRight=4;overflow=hidden;rotatable=0;points=[[0,0.5],[1,0.5]];portConstraint=eastwest;whiteSpace=wrap;html=1;" vertex="1" parent="tkfAQQkheavzR8f0n5Tx-132">
          <mxGeometry y="78" width="200" height="26" as="geometry" />
        </mxCell>
        <mxCell id="tkfAQQkheavzR8f0n5Tx-146" value="" style="endArrow=block;dashed=1;endFill=0;endSize=12;html=1;rounded=0;" edge="1" parent="1" source="tkfAQQkheavzR8f0n5Tx-127" target="tkfAQQkheavzR8f0n5Tx-132">
          <mxGeometry width="160" relative="1" as="geometry">
            <mxPoint x="1250" y="380" as="sourcePoint" />
            <mxPoint x="1327" y="300" as="targetPoint" />
          </mxGeometry>
        </mxCell>
      </root>
    </mxGraphModel>
  </diagram>
</mxfile>
